<mxfile host="app.diagrams.net" modified="2023-11-12T06:25:20.520Z" agent="Mozilla/5.0 (Macintosh; Intel Mac OS X 10.15; rv:109.0) Gecko/20100101 Firefox/118.0" etag="rqyx5XJPOIYiTFkstNnG" version="22.1.0" type="device">
  <diagram name="Page-1" id="uzWH8tRsygVQmz-gBv_M">
    <mxGraphModel dx="1658" dy="1096" grid="1" gridSize="10" guides="1" tooltips="1" connect="1" arrows="1" fold="1" page="0" pageScale="1" pageWidth="850" pageHeight="1100" math="0" shadow="0">
      <root>
        <mxCell id="0" />
        <mxCell id="1" parent="0" />
        <mxCell id="lvWCLgrq92xWOjsyrohx-4" value="&lt;div align=&quot;left&quot;&gt;&lt;font style=&quot;font-size: 16px;&quot;&gt;&lt;b&gt;&lt;br&gt;&lt;/b&gt;&lt;/font&gt;&lt;/div&gt;&lt;div align=&quot;left&quot;&gt;&lt;font style=&quot;font-size: 16px;&quot;&gt;&lt;b&gt;&lt;span style=&quot;white-space: pre;&quot;&gt;&#x9;&lt;/span&gt;video_controller&lt;br&gt;&lt;/b&gt;&lt;/font&gt;&lt;/div&gt;" style="rounded=0;whiteSpace=wrap;html=1;fillColor=#f5f5f5;fontColor=#333333;strokeColor=#666666;verticalAlign=top;labelPosition=center;verticalLabelPosition=middle;align=left;movable=0;resizable=0;rotatable=0;deletable=0;editable=0;locked=1;connectable=0;" vertex="1" parent="1">
          <mxGeometry x="-30" y="-40" width="1320" height="480" as="geometry" />
        </mxCell>
        <mxCell id="lvWCLgrq92xWOjsyrohx-7" value="" style="group;rounded=0;fontSize=15;" vertex="1" connectable="0" parent="1">
          <mxGeometry x="-10" y="270" width="170" height="150" as="geometry" />
        </mxCell>
        <mxCell id="lvWCLgrq92xWOjsyrohx-96" style="edgeStyle=orthogonalEdgeStyle;orthogonalLoop=1;jettySize=auto;html=1;exitX=1;exitY=0.5;exitDx=0;exitDy=0;rounded=0;" edge="1" parent="lvWCLgrq92xWOjsyrohx-7">
          <mxGeometry relative="1" as="geometry">
            <mxPoint x="1330" y="102" as="targetPoint" />
            <mxPoint x="170" y="102" as="sourcePoint" />
          </mxGeometry>
        </mxCell>
        <mxCell id="lvWCLgrq92xWOjsyrohx-97" value="vsync" style="edgeLabel;html=1;align=center;verticalAlign=middle;resizable=0;points=[];labelBackgroundColor=none;rounded=0;" vertex="1" connectable="0" parent="lvWCLgrq92xWOjsyrohx-96">
          <mxGeometry x="0.984" y="1" relative="1" as="geometry">
            <mxPoint x="29" y="1" as="offset" />
          </mxGeometry>
        </mxCell>
        <mxCell id="lvWCLgrq92xWOjsyrohx-175" style="edgeStyle=orthogonalEdgeStyle;orthogonalLoop=1;jettySize=auto;html=1;exitX=0.5;exitY=0;exitDx=0;exitDy=0;" edge="1" parent="lvWCLgrq92xWOjsyrohx-7" source="lvWCLgrq92xWOjsyrohx-5">
          <mxGeometry relative="1" as="geometry">
            <mxPoint x="85.26086956521749" y="-70" as="targetPoint" />
          </mxGeometry>
        </mxCell>
        <mxCell id="lvWCLgrq92xWOjsyrohx-176" value="[5:0] frame_count" style="edgeLabel;html=1;align=center;verticalAlign=middle;resizable=0;points=[];labelBackgroundColor=none;" vertex="1" connectable="0" parent="lvWCLgrq92xWOjsyrohx-175">
          <mxGeometry x="0.1014" y="-1" relative="1" as="geometry">
            <mxPoint x="-2" y="-42" as="offset" />
          </mxGeometry>
        </mxCell>
        <mxCell id="lvWCLgrq92xWOjsyrohx-5" value="video_signal_gen" style="rounded=0;whiteSpace=wrap;html=1;fontSize=15;" vertex="1" parent="lvWCLgrq92xWOjsyrohx-7">
          <mxGeometry width="170" height="150" as="geometry" />
        </mxCell>
        <mxCell id="lvWCLgrq92xWOjsyrohx-14" style="edgeStyle=orthogonalEdgeStyle;orthogonalLoop=1;jettySize=auto;html=1;exitX=0;exitY=0.5;exitDx=0;exitDy=0;endArrow=none;endFill=0;startArrow=classic;startFill=1;rounded=0;" edge="1" parent="lvWCLgrq92xWOjsyrohx-7" source="lvWCLgrq92xWOjsyrohx-13">
          <mxGeometry relative="1" as="geometry">
            <mxPoint x="-70" y="133" as="targetPoint" />
          </mxGeometry>
        </mxCell>
        <mxCell id="lvWCLgrq92xWOjsyrohx-15" value="clk_74mhz" style="edgeLabel;html=1;align=center;verticalAlign=middle;resizable=0;points=[];rounded=0;" vertex="1" connectable="0" parent="lvWCLgrq92xWOjsyrohx-14">
          <mxGeometry x="0.4143" y="-1" relative="1" as="geometry">
            <mxPoint x="-50" as="offset" />
          </mxGeometry>
        </mxCell>
        <mxCell id="lvWCLgrq92xWOjsyrohx-13" value="" style="triangle;whiteSpace=wrap;html=1;rounded=0;" vertex="1" parent="lvWCLgrq92xWOjsyrohx-7">
          <mxGeometry y="126" width="10" height="13.33" as="geometry" />
        </mxCell>
        <mxCell id="lvWCLgrq92xWOjsyrohx-98" style="edgeStyle=orthogonalEdgeStyle;orthogonalLoop=1;jettySize=auto;html=1;exitX=1;exitY=0.5;exitDx=0;exitDy=0;rounded=0;" edge="1" parent="1">
          <mxGeometry relative="1" as="geometry">
            <mxPoint x="1320" y="347" as="targetPoint" />
            <mxPoint x="160" y="347.43" as="sourcePoint" />
          </mxGeometry>
        </mxCell>
        <mxCell id="lvWCLgrq92xWOjsyrohx-99" value="hsync" style="edgeLabel;html=1;align=center;verticalAlign=middle;resizable=0;points=[];labelBackgroundColor=none;rounded=0;" vertex="1" connectable="0" parent="lvWCLgrq92xWOjsyrohx-98">
          <mxGeometry x="0.984" y="1" relative="1" as="geometry">
            <mxPoint x="29" y="1" as="offset" />
          </mxGeometry>
        </mxCell>
        <mxCell id="lvWCLgrq92xWOjsyrohx-101" style="edgeStyle=orthogonalEdgeStyle;orthogonalLoop=1;jettySize=auto;html=1;rounded=0;" edge="1" parent="1">
          <mxGeometry relative="1" as="geometry">
            <mxPoint x="1320" y="397" as="targetPoint" />
            <mxPoint x="160" y="397" as="sourcePoint" />
          </mxGeometry>
        </mxCell>
        <mxCell id="lvWCLgrq92xWOjsyrohx-102" value="active_draw" style="edgeLabel;html=1;align=center;verticalAlign=middle;resizable=0;points=[];labelBackgroundColor=none;rounded=0;" vertex="1" connectable="0" parent="lvWCLgrq92xWOjsyrohx-101">
          <mxGeometry x="0.984" y="1" relative="1" as="geometry">
            <mxPoint x="44" y="1" as="offset" />
          </mxGeometry>
        </mxCell>
        <mxCell id="lvWCLgrq92xWOjsyrohx-105" style="edgeStyle=orthogonalEdgeStyle;orthogonalLoop=1;jettySize=auto;html=1;exitX=1;exitY=0.5;exitDx=0;exitDy=0;rounded=0;endArrow=none;endFill=0;" edge="1" parent="1">
          <mxGeometry relative="1" as="geometry">
            <mxPoint x="1200" y="323" as="targetPoint" />
            <mxPoint x="160" y="323.43" as="sourcePoint" />
          </mxGeometry>
        </mxCell>
        <mxCell id="lvWCLgrq92xWOjsyrohx-106" value="[9:0] vcount" style="edgeLabel;html=1;align=left;verticalAlign=middle;resizable=0;points=[];labelBackgroundColor=none;rounded=0;" vertex="1" connectable="0" parent="lvWCLgrq92xWOjsyrohx-105">
          <mxGeometry x="0.984" y="1" relative="1" as="geometry">
            <mxPoint x="9" y="1" as="offset" />
          </mxGeometry>
        </mxCell>
        <mxCell id="lvWCLgrq92xWOjsyrohx-107" style="edgeStyle=orthogonalEdgeStyle;orthogonalLoop=1;jettySize=auto;html=1;exitX=1;exitY=0.5;exitDx=0;exitDy=0;rounded=0;endArrow=none;endFill=0;" edge="1" parent="1">
          <mxGeometry relative="1" as="geometry">
            <mxPoint x="1200" y="297" as="targetPoint" />
            <mxPoint x="160" y="297.43" as="sourcePoint" />
          </mxGeometry>
        </mxCell>
        <mxCell id="lvWCLgrq92xWOjsyrohx-108" value="[10:0] hcount" style="edgeLabel;html=1;align=left;verticalAlign=middle;resizable=0;points=[];labelBackgroundColor=none;rounded=0;" vertex="1" connectable="0" parent="lvWCLgrq92xWOjsyrohx-107">
          <mxGeometry x="0.984" y="1" relative="1" as="geometry">
            <mxPoint x="9" y="1" as="offset" />
          </mxGeometry>
        </mxCell>
        <mxCell id="lvWCLgrq92xWOjsyrohx-124" style="edgeStyle=orthogonalEdgeStyle;orthogonalLoop=1;jettySize=auto;html=1;exitX=0;exitY=0.25;exitDx=0;exitDy=0;endArrow=oval;endFill=1;rounded=0;startArrow=classic;startFill=1;" edge="1" parent="1" source="lvWCLgrq92xWOjsyrohx-129">
          <mxGeometry relative="1" as="geometry">
            <mxPoint x="170" y="297" as="targetPoint" />
            <mxPoint x="260" y="160.00000000000045" as="sourcePoint" />
          </mxGeometry>
        </mxCell>
        <mxCell id="lvWCLgrq92xWOjsyrohx-127" value="hcount" style="edgeLabel;html=1;align=center;verticalAlign=middle;resizable=0;points=[];labelBackgroundColor=none;" vertex="1" connectable="0" parent="lvWCLgrq92xWOjsyrohx-124">
          <mxGeometry x="-0.5438" y="-2" relative="1" as="geometry">
            <mxPoint x="65" y="-8" as="offset" />
          </mxGeometry>
        </mxCell>
        <mxCell id="lvWCLgrq92xWOjsyrohx-126" style="edgeStyle=orthogonalEdgeStyle;orthogonalLoop=1;jettySize=auto;html=1;exitX=0;exitY=0.5;exitDx=0;exitDy=0;endArrow=oval;endFill=1;rounded=0;startArrow=classic;startFill=1;" edge="1" parent="1" source="lvWCLgrq92xWOjsyrohx-129">
          <mxGeometry relative="1" as="geometry">
            <mxPoint x="190" y="323" as="targetPoint" />
            <mxPoint x="261.67999999999984" y="186.1600000000003" as="sourcePoint" />
          </mxGeometry>
        </mxCell>
        <mxCell id="lvWCLgrq92xWOjsyrohx-128" value="vcount" style="edgeLabel;html=1;align=center;verticalAlign=middle;resizable=0;points=[];labelBackgroundColor=none;" vertex="1" connectable="0" parent="lvWCLgrq92xWOjsyrohx-126">
          <mxGeometry x="-0.5387" y="-1" relative="1" as="geometry">
            <mxPoint x="63" y="-8" as="offset" />
          </mxGeometry>
        </mxCell>
        <mxCell id="lvWCLgrq92xWOjsyrohx-136" style="edgeStyle=orthogonalEdgeStyle;orthogonalLoop=1;jettySize=auto;html=1;exitX=0.5;exitY=0;exitDx=0;exitDy=0;endArrow=none;endFill=0;startArrow=classic;startFill=1;rounded=0;" edge="1" parent="1" source="lvWCLgrq92xWOjsyrohx-129">
          <mxGeometry relative="1" as="geometry">
            <mxPoint x="-80" y="80" as="targetPoint" />
            <Array as="points">
              <mxPoint x="540" y="80" />
            </Array>
          </mxGeometry>
        </mxCell>
        <mxCell id="lvWCLgrq92xWOjsyrohx-140" value="[31:0] vram_addr" style="edgeLabel;html=1;align=center;verticalAlign=middle;resizable=0;points=[];" vertex="1" connectable="0" parent="lvWCLgrq92xWOjsyrohx-136">
          <mxGeometry x="0.96" y="3" relative="1" as="geometry">
            <mxPoint x="-63" y="-3" as="offset" />
          </mxGeometry>
        </mxCell>
        <mxCell id="lvWCLgrq92xWOjsyrohx-137" style="edgeStyle=orthogonalEdgeStyle;orthogonalLoop=1;jettySize=auto;html=1;exitX=0.408;exitY=0;exitDx=0;exitDy=0;endArrow=none;endFill=0;exitPerimeter=0;startArrow=classic;startFill=1;rounded=0;" edge="1" parent="1" source="lvWCLgrq92xWOjsyrohx-129">
          <mxGeometry relative="1" as="geometry">
            <mxPoint x="-80" y="100" as="targetPoint" />
            <Array as="points">
              <mxPoint x="523" y="100" />
            </Array>
          </mxGeometry>
        </mxCell>
        <mxCell id="lvWCLgrq92xWOjsyrohx-141" value="[7:0] vram_data" style="edgeLabel;html=1;align=center;verticalAlign=middle;resizable=0;points=[];" vertex="1" connectable="0" parent="lvWCLgrq92xWOjsyrohx-137">
          <mxGeometry x="0.9917" relative="1" as="geometry">
            <mxPoint x="-53" as="offset" />
          </mxGeometry>
        </mxCell>
        <mxCell id="lvWCLgrq92xWOjsyrohx-138" style="edgeStyle=orthogonalEdgeStyle;orthogonalLoop=1;jettySize=auto;html=1;exitX=0.574;exitY=0.001;exitDx=0;exitDy=0;endArrow=none;endFill=0;exitPerimeter=0;startArrow=classic;startFill=1;rounded=0;" edge="1" parent="1" source="lvWCLgrq92xWOjsyrohx-129">
          <mxGeometry relative="1" as="geometry">
            <mxPoint x="-80" y="60" as="targetPoint" />
            <Array as="points">
              <mxPoint x="553" y="90" />
              <mxPoint x="553" y="40" />
            </Array>
          </mxGeometry>
        </mxCell>
        <mxCell id="lvWCLgrq92xWOjsyrohx-139" value="clk_cpu" style="edgeLabel;html=1;align=center;verticalAlign=middle;resizable=0;points=[];" vertex="1" connectable="0" parent="lvWCLgrq92xWOjsyrohx-138">
          <mxGeometry x="0.9731" relative="1" as="geometry">
            <mxPoint x="-39" as="offset" />
          </mxGeometry>
        </mxCell>
        <mxCell id="lvWCLgrq92xWOjsyrohx-142" style="edgeStyle=orthogonalEdgeStyle;orthogonalLoop=1;jettySize=auto;html=1;exitX=0.333;exitY=0.004;exitDx=0;exitDy=0;exitPerimeter=0;endArrow=none;endFill=0;startArrow=classic;startFill=1;rounded=0;" edge="1" parent="1" source="lvWCLgrq92xWOjsyrohx-129">
          <mxGeometry relative="1" as="geometry">
            <mxPoint x="-80" y="120" as="targetPoint" />
            <Array as="points">
              <mxPoint x="510" y="120" />
            </Array>
          </mxGeometry>
        </mxCell>
        <mxCell id="lvWCLgrq92xWOjsyrohx-143" value="vram_write_enable" style="edgeLabel;html=1;align=center;verticalAlign=middle;resizable=0;points=[];" vertex="1" connectable="0" parent="lvWCLgrq92xWOjsyrohx-142">
          <mxGeometry x="0.9298" relative="1" as="geometry">
            <mxPoint x="-72" as="offset" />
          </mxGeometry>
        </mxCell>
        <mxCell id="lvWCLgrq92xWOjsyrohx-153" style="edgeStyle=orthogonalEdgeStyle;orthogonalLoop=1;jettySize=auto;html=1;exitX=1;exitY=0.25;exitDx=0;exitDy=0;entryX=0;entryY=0.125;entryDx=0;entryDy=0;entryPerimeter=0;" edge="1" parent="1" target="lvWCLgrq92xWOjsyrohx-145">
          <mxGeometry relative="1" as="geometry">
            <mxPoint x="630" y="150" as="sourcePoint" />
            <mxPoint x="700" y="150" as="targetPoint" />
          </mxGeometry>
        </mxCell>
        <mxCell id="lvWCLgrq92xWOjsyrohx-156" value="x, y" style="edgeLabel;html=1;align=center;verticalAlign=middle;resizable=0;points=[];labelBackgroundColor=none;" vertex="1" connectable="0" parent="lvWCLgrq92xWOjsyrohx-153">
          <mxGeometry x="-0.5143" relative="1" as="geometry">
            <mxPoint x="23" y="-10" as="offset" />
          </mxGeometry>
        </mxCell>
        <mxCell id="lvWCLgrq92xWOjsyrohx-154" style="edgeStyle=orthogonalEdgeStyle;orthogonalLoop=1;jettySize=auto;html=1;exitX=1;exitY=0.5;exitDx=0;exitDy=0;entryX=0.007;entryY=0.373;entryDx=0;entryDy=0;entryPerimeter=0;" edge="1" parent="1" target="lvWCLgrq92xWOjsyrohx-145">
          <mxGeometry relative="1" as="geometry">
            <mxPoint x="630" y="170" as="sourcePoint" />
            <mxPoint x="700" y="170" as="targetPoint" />
          </mxGeometry>
        </mxCell>
        <mxCell id="lvWCLgrq92xWOjsyrohx-157" value="valid" style="edgeLabel;html=1;align=center;verticalAlign=middle;resizable=0;points=[];labelBackgroundColor=none;" vertex="1" connectable="0" parent="lvWCLgrq92xWOjsyrohx-154">
          <mxGeometry x="-0.1009" y="2" relative="1" as="geometry">
            <mxPoint y="-8" as="offset" />
          </mxGeometry>
        </mxCell>
        <mxCell id="lvWCLgrq92xWOjsyrohx-155" style="edgeStyle=orthogonalEdgeStyle;orthogonalLoop=1;jettySize=auto;html=1;exitX=1;exitY=0.5;exitDx=0;exitDy=0;" edge="1" parent="1">
          <mxGeometry relative="1" as="geometry">
            <mxPoint x="630" y="190" as="sourcePoint" />
            <mxPoint x="740" y="190" as="targetPoint" />
          </mxGeometry>
        </mxCell>
        <mxCell id="lvWCLgrq92xWOjsyrohx-158" value="[7:0] code_point" style="edgeLabel;html=1;align=center;verticalAlign=middle;resizable=0;points=[];labelBackgroundColor=none;" vertex="1" connectable="0" parent="lvWCLgrq92xWOjsyrohx-155">
          <mxGeometry x="-0.0404" y="2" relative="1" as="geometry">
            <mxPoint x="-3" y="-8" as="offset" />
          </mxGeometry>
        </mxCell>
        <mxCell id="lvWCLgrq92xWOjsyrohx-159" style="edgeStyle=orthogonalEdgeStyle;orthogonalLoop=1;jettySize=auto;html=1;exitX=1;exitY=0.75;exitDx=0;exitDy=0;entryX=0;entryY=0.75;entryDx=0;entryDy=0;" edge="1" parent="1">
          <mxGeometry relative="1" as="geometry">
            <mxPoint x="630" y="211" as="sourcePoint" />
            <mxPoint x="740" y="211" as="targetPoint" />
          </mxGeometry>
        </mxCell>
        <mxCell id="lvWCLgrq92xWOjsyrohx-160" value="[7:0] attribute" style="edgeLabel;html=1;align=center;verticalAlign=middle;resizable=0;points=[];labelBackgroundColor=none;" vertex="1" connectable="0" parent="lvWCLgrq92xWOjsyrohx-159">
          <mxGeometry x="0.0255" y="-2" relative="1" as="geometry">
            <mxPoint x="-6" y="-13" as="offset" />
          </mxGeometry>
        </mxCell>
        <mxCell id="lvWCLgrq92xWOjsyrohx-186" style="edgeStyle=orthogonalEdgeStyle;orthogonalLoop=1;jettySize=auto;html=1;exitX=0;exitY=0.75;exitDx=0;exitDy=0;endArrow=oval;endFill=1;startArrow=classic;startFill=1;rounded=0;" edge="1" parent="1">
          <mxGeometry relative="1" as="geometry">
            <mxPoint x="220" y="397.0000000000002" as="targetPoint" />
            <mxPoint x="450" y="197" as="sourcePoint" />
          </mxGeometry>
        </mxCell>
        <mxCell id="lvWCLgrq92xWOjsyrohx-187" value="active_draw" style="edgeLabel;html=1;align=center;verticalAlign=middle;resizable=0;points=[];labelBackgroundColor=none;" vertex="1" connectable="0" parent="lvWCLgrq92xWOjsyrohx-186">
          <mxGeometry x="-0.8065" y="1" relative="1" as="geometry">
            <mxPoint x="-1" y="-8" as="offset" />
          </mxGeometry>
        </mxCell>
        <mxCell id="lvWCLgrq92xWOjsyrohx-129" value="video_bram&lt;br&gt;&lt;i&gt;&lt;font color=&quot;#bfbfbf&quot;&gt;(14.4 KB BRAM)&lt;/font&gt;&lt;/i&gt;&lt;br&gt;&lt;i&gt;+2 cycles&lt;/i&gt;" style="rounded=0;whiteSpace=wrap;html=1;fontSize=15;" vertex="1" parent="1">
          <mxGeometry x="450" y="140" width="180" height="80" as="geometry" />
        </mxCell>
        <mxCell id="lvWCLgrq92xWOjsyrohx-134" value="" style="triangle;whiteSpace=wrap;html=1;rounded=0;rotation=0;" vertex="1" parent="1">
          <mxGeometry x="450" y="203.67000000000002" width="10" height="13.33" as="geometry" />
        </mxCell>
        <mxCell id="lvWCLgrq92xWOjsyrohx-147" value="" style="group" vertex="1" connectable="0" parent="1">
          <mxGeometry x="740" y="140" width="180" height="80" as="geometry" />
        </mxCell>
        <mxCell id="lvWCLgrq92xWOjsyrohx-145" value="font_brom&lt;br&gt;&lt;i&gt;&lt;font color=&quot;#bfbfbf&quot;&gt;(4 KB BROM)&lt;/font&gt;&lt;/i&gt;&lt;br&gt;&lt;i&gt;+2 cycles&lt;/i&gt;" style="rounded=0;whiteSpace=wrap;html=1;fontSize=15;" vertex="1" parent="lvWCLgrq92xWOjsyrohx-147">
          <mxGeometry width="180" height="80" as="geometry" />
        </mxCell>
        <mxCell id="lvWCLgrq92xWOjsyrohx-146" value="" style="triangle;whiteSpace=wrap;html=1;rounded=0;rotation=0;" vertex="1" parent="lvWCLgrq92xWOjsyrohx-147">
          <mxGeometry y="63.670000000000016" width="10" height="13.33" as="geometry" />
        </mxCell>
        <mxCell id="lvWCLgrq92xWOjsyrohx-179" style="edgeStyle=orthogonalEdgeStyle;orthogonalLoop=1;jettySize=auto;html=1;exitX=1;exitY=0.5;exitDx=0;exitDy=0;" edge="1" parent="1" source="lvWCLgrq92xWOjsyrohx-161">
          <mxGeometry relative="1" as="geometry">
            <mxPoint x="1320" y="179.608695652174" as="targetPoint" />
          </mxGeometry>
        </mxCell>
        <mxCell id="lvWCLgrq92xWOjsyrohx-180" value="red, green, blue" style="edgeLabel;html=1;align=center;verticalAlign=middle;resizable=0;points=[];" vertex="1" connectable="0" parent="lvWCLgrq92xWOjsyrohx-179">
          <mxGeometry x="0.9179" y="-1" relative="1" as="geometry">
            <mxPoint x="55" y="-1" as="offset" />
          </mxGeometry>
        </mxCell>
        <mxCell id="lvWCLgrq92xWOjsyrohx-161" value="attribute_brom&lt;br&gt;&lt;div&gt;&lt;i&gt;&lt;font color=&quot;#b3b3b3&quot;&gt;(48 B DRAM)&lt;/font&gt;&lt;/i&gt;&lt;/div&gt;&lt;div&gt;&lt;i&gt;+1 cycle&lt;br&gt;&lt;/i&gt;&lt;/div&gt;" style="rounded=0;whiteSpace=wrap;html=1;fontSize=15;" vertex="1" parent="1">
          <mxGeometry x="1010" y="140" width="180" height="80" as="geometry" />
        </mxCell>
        <mxCell id="lvWCLgrq92xWOjsyrohx-165" style="edgeStyle=orthogonalEdgeStyle;orthogonalLoop=1;jettySize=auto;html=1;exitX=1;exitY=0.25;exitDx=0;exitDy=0;entryX=0;entryY=0.25;entryDx=0;entryDy=0;" edge="1" parent="1" source="lvWCLgrq92xWOjsyrohx-145" target="lvWCLgrq92xWOjsyrohx-161">
          <mxGeometry relative="1" as="geometry" />
        </mxCell>
        <mxCell id="lvWCLgrq92xWOjsyrohx-166" value="[7:0] attribute" style="edgeLabel;html=1;align=center;verticalAlign=middle;resizable=0;points=[];labelBackgroundColor=none;" vertex="1" connectable="0" parent="lvWCLgrq92xWOjsyrohx-165">
          <mxGeometry x="0.2444" y="-2" relative="1" as="geometry">
            <mxPoint x="-14" y="-13" as="offset" />
          </mxGeometry>
        </mxCell>
        <mxCell id="lvWCLgrq92xWOjsyrohx-171" style="edgeStyle=orthogonalEdgeStyle;orthogonalLoop=1;jettySize=auto;html=1;exitX=0.5;exitY=1;exitDx=0;exitDy=0;entryX=0.5;entryY=0;entryDx=0;entryDy=0;" edge="1" parent="1" target="lvWCLgrq92xWOjsyrohx-161">
          <mxGeometry relative="1" as="geometry">
            <mxPoint x="1100" y="80" as="sourcePoint" />
          </mxGeometry>
        </mxCell>
        <mxCell id="lvWCLgrq92xWOjsyrohx-174" value="[5:0] frame_count" style="edgeLabel;html=1;align=center;verticalAlign=middle;resizable=0;points=[];labelBackgroundColor=none;" vertex="1" connectable="0" parent="lvWCLgrq92xWOjsyrohx-171">
          <mxGeometry x="-0.3048" y="-1" relative="1" as="geometry">
            <mxPoint x="1" y="-31" as="offset" />
          </mxGeometry>
        </mxCell>
        <mxCell id="lvWCLgrq92xWOjsyrohx-177" style="edgeStyle=orthogonalEdgeStyle;orthogonalLoop=1;jettySize=auto;html=1;exitX=1;exitY=0.5;exitDx=0;exitDy=0;entryX=0;entryY=0.5;entryDx=0;entryDy=0;" edge="1" parent="1" source="lvWCLgrq92xWOjsyrohx-145" target="lvWCLgrq92xWOjsyrohx-161">
          <mxGeometry relative="1" as="geometry" />
        </mxCell>
        <mxCell id="lvWCLgrq92xWOjsyrohx-178" value="pixel" style="edgeLabel;html=1;align=center;verticalAlign=middle;resizable=0;points=[];labelBackgroundColor=none;" vertex="1" connectable="0" parent="lvWCLgrq92xWOjsyrohx-177">
          <mxGeometry x="0.2254" y="1" relative="1" as="geometry">
            <mxPoint x="-13" y="-9" as="offset" />
          </mxGeometry>
        </mxCell>
        <mxCell id="lvWCLgrq92xWOjsyrohx-184" value="" style="triangle;whiteSpace=wrap;html=1;rounded=0;rotation=0;" vertex="1" parent="1">
          <mxGeometry x="1010" y="203.67000000000002" width="10" height="13.33" as="geometry" />
        </mxCell>
        <mxCell id="lvWCLgrq92xWOjsyrohx-188" value="+4" style="rounded=0;whiteSpace=wrap;html=1;fillColor=#ffe6cc;strokeColor=#d79b00;fontSize=15;rotation=90;" vertex="1" parent="1">
          <mxGeometry x="60" y="160" width="30" height="160" as="geometry" />
        </mxCell>
        <mxCell id="lvWCLgrq92xWOjsyrohx-189" value="" style="triangle;whiteSpace=wrap;html=1;rounded=0;fillColor=#ffe6cc;strokeColor=#d79b00;" vertex="1" parent="1">
          <mxGeometry x="-5" y="234.33" width="10" height="13.33" as="geometry" />
        </mxCell>
        <mxCell id="lvWCLgrq92xWOjsyrohx-190" value="" style="group" vertex="1" connectable="0" parent="1">
          <mxGeometry x="590" y="270" width="50" height="160" as="geometry" />
        </mxCell>
        <mxCell id="lvWCLgrq92xWOjsyrohx-181" value="+5" style="rounded=0;whiteSpace=wrap;html=1;fillColor=#ffe6cc;strokeColor=#d79b00;fontSize=15;" vertex="1" parent="lvWCLgrq92xWOjsyrohx-190">
          <mxGeometry width="50" height="160" as="geometry" />
        </mxCell>
        <mxCell id="lvWCLgrq92xWOjsyrohx-182" value="" style="triangle;whiteSpace=wrap;html=1;rounded=0;fillColor=#ffe6cc;strokeColor=#d79b00;" vertex="1" parent="lvWCLgrq92xWOjsyrohx-190">
          <mxGeometry y="136.67000000000002" width="10" height="13.33" as="geometry" />
        </mxCell>
        <mxCell id="lvWCLgrq92xWOjsyrohx-192" style="edgeStyle=orthogonalEdgeStyle;orthogonalLoop=1;jettySize=auto;html=1;exitX=0.5;exitY=1;exitDx=0;exitDy=0;" edge="1" parent="lvWCLgrq92xWOjsyrohx-190" source="lvWCLgrq92xWOjsyrohx-181" target="lvWCLgrq92xWOjsyrohx-181">
          <mxGeometry relative="1" as="geometry" />
        </mxCell>
        <mxCell id="lvWCLgrq92xWOjsyrohx-195" style="edgeStyle=orthogonalEdgeStyle;orthogonalLoop=1;jettySize=auto;html=1;exitX=1;exitY=0.5;exitDx=0;exitDy=0;entryX=0;entryY=0.5;entryDx=0;entryDy=0;" edge="1" parent="1">
          <mxGeometry relative="1" as="geometry">
            <mxPoint x="920" y="202.93" as="sourcePoint" />
            <mxPoint x="1010" y="202.93" as="targetPoint" />
          </mxGeometry>
        </mxCell>
        <mxCell id="lvWCLgrq92xWOjsyrohx-196" value="valid" style="edgeLabel;html=1;align=center;verticalAlign=middle;resizable=0;points=[];labelBackgroundColor=none;" vertex="1" connectable="0" parent="lvWCLgrq92xWOjsyrohx-195">
          <mxGeometry x="0.2254" y="1" relative="1" as="geometry">
            <mxPoint x="-13" y="-9" as="offset" />
          </mxGeometry>
        </mxCell>
      </root>
    </mxGraphModel>
  </diagram>
</mxfile>
